# xmcd CD database file
#
# Track frame offsets:
#	150
#	17887
#	39353
#	57687
#	80832
#	97827
#	120461
#	138468
#	152289
#	174143
#	195018
#	210086
#
# Disc length: 3032 seconds
#
# Revision: 0
# Processed by: cddbd v1.5.2PL0 Copyright (c) Steve Scherf et al.
# Submitted via: CDex 1.51
#
DISCID=870bd60c
DTITLE=Roberto Morbioli Trio - Acoustic Me
DYEAR=2015
DGENRE=Blues
TTITLE0=Mother's House
TTITLE1=My Baby's Gone
TTITLE2=I Love You Much And More
TTITLE3=I'm In The Blues
TTITLE4=Love Affair
TTITLE5=You Smile
TTITLE6=Specchi Rosa, Specchi Blu
TTITLE7=Cildhood Memories
TTITLE8=Mama Told Me
TTITLE9=Miracles
TTITLE10=Train To Tyngsborough
TTITLE11=Under A Sky Like This
EXTD=YEAR: 2015
EXTT0=
EXTT1=
EXTT2=
EXTT3=
EXTT4=
EXTT5=
EXTT6=
EXTT7=
EXTT8=
EXTT9=
EXTT10=
EXTT11=
PLAYORDER=
